# Blender 4.0.2
# www.blender.org
o Boostpad
v -7.500000 0.000000 7.500000
v 7.500000 0.000000 7.500000
v -6.250000 0.600000 6.250000
v 7.500000 0.000000 -7.500000
v 6.250000 0.600000 -6.250000
v -6.250000 0.600000 -6.250000
v -7.500000 0.000000 -7.500000
v 6.250000 0.600000 6.250000
v 0.000000 0.000000 -7.500000
v 0.000000 0.600000 6.250000
v 0.000000 0.600000 -6.250000
v 0.000000 0.000000 7.500000
v -6.250000 0.600000 0.000000
v 6.250000 0.600000 0.000000
v 7.500000 0.000000 0.000000
v -7.500000 0.000000 0.000000
v 0.000000 0.600000 0.000000
v -7.500000 -2.000000 7.500000
v 7.500000 -2.000000 7.500000
v 7.500000 -2.000000 -7.500000
v -7.500000 -2.000000 -7.500000
v 0.000000 -2.000000 -7.500000
v 0.000000 -2.000000 7.500000
v 7.500000 -2.000000 0.000000
v -7.500000 -2.000000 0.000000
vn -0.0000 0.9015 -0.4327
vn -0.4327 0.9015 -0.0000
vn -0.0000 1.0000 -0.0000
vn 0.4327 0.9015 -0.0000
vn -0.0000 0.9015 0.4327
vn 1.0000 -0.0000 -0.0000
vn -0.0000 -0.0000 -1.0000
vn -0.0000 -0.0000 1.0000
vn -1.0000 -0.0000 -0.0000
vt 0.500000 0.916667
vt 0.916667 0.916667
vt 1.000000 1.000000
vt 0.500000 1.000000
vt 0.000000 0.500000
vt 0.083333 0.500000
vt 0.083333 0.916667
vt 0.000000 1.000000
vt 0.500000 0.500000
vt 0.916667 0.500000
vt 1.000000 0.500000
vt 0.500000 0.000000
vt 1.000000 0.000000
vt 0.916667 0.083333
vt 0.500000 0.083333
vt 0.000000 0.000000
vt 0.083333 0.083333
s 1
f 11/1/1 5/2/1 4/3/1 9/4/1
f 16/5/2 13/6/2 6/7/2 7/8/2
f 17/9/3 14/10/3 5/2/3 11/1/3
f 14/10/4 15/11/4 4/3/4 5/2/4
f 12/12/5 2/13/5 8/14/5 10/15/5
f 1/16/5 12/12/5 10/15/5 3/17/5
f 13/6/3 17/9/3 11/1/3 6/7/3
f 6/7/1 11/1/1 9/4/1 7/8/1
f 3/17/3 10/15/3 17/9/3 13/6/3
f 8/14/4 2/13/4 15/11/4 14/10/4
f 10/15/3 8/14/3 14/10/3 17/9/3
f 1/16/2 3/17/2 13/6/2 16/5/2
f 15/11/6 2/13/6 19/13/6 24/11/6
f 7/8/7 9/4/7 22/4/7 21/8/7
f 12/12/8 1/16/8 18/16/8 23/12/8
f 16/5/9 7/8/9 21/8/9 25/5/9
f 2/13/8 12/12/8 23/12/8 19/13/8
f 1/16/9 16/5/9 25/5/9 18/16/9
f 4/3/6 15/11/6 24/11/6 20/3/6
f 9/4/7 4/3/7 20/3/7 22/4/7
