<?xml version="1.0" encoding="UTF-8" standalone="no"?>
<!-- Created with Inkscape (http://www.inkscape.org/) -->

<svg
   width="320"
   height="240"
   viewBox="0 0 320 240"
   version="1.1"
   id="svg1"
   inkscape:export-filename="../assets/menus/main_menu/textures/main_menu.png"
   inkscape:export-xdpi="96"
   inkscape:export-ydpi="96"
   sodipodi:docname="menus_mainmenu.svg"
   inkscape:version="1.3 (0e150ed6c4, 2023-07-21)"
   xmlns:inkscape="http://www.inkscape.org/namespaces/inkscape"
   xmlns:sodipodi="http://sodipodi.sourceforge.net/DTD/sodipodi-0.dtd"
   xmlns="http://www.w3.org/2000/svg"
   xmlns:svg="http://www.w3.org/2000/svg">
  <sodipodi:namedview
     id="namedview1"
     pagecolor="#505050"
     bordercolor="#ffffff"
     borderopacity="1"
     inkscape:showpageshadow="0"
     inkscape:pageopacity="0"
     inkscape:pagecheckerboard="1"
     inkscape:deskcolor="#505050"
     inkscape:document-units="px"
     showgrid="true"
     inkscape:zoom="2.955623"
     inkscape:cx="136.51944"
     inkscape:cy="158.51142"
     inkscape:window-width="2560"
     inkscape:window-height="1371"
     inkscape:window-x="0"
     inkscape:window-y="32"
     inkscape:window-maximized="1"
     inkscape:current-layer="layer3">
    <inkscape:grid
       id="grid1"
       units="px"
       originx="0"
       originy="0"
       spacingx="1"
       spacingy="1"
       empcolor="#0099e5"
       empopacity="0.30196078"
       color="#0099e5"
       opacity="0.14901961"
       empspacing="4"
       dotted="false"
       gridanglex="30"
       gridanglez="30"
       visible="true" />
  </sodipodi:namedview>
  <defs
     id="defs1">
    <inkscape:path-effect
       effect="tiling"
       id="path-effect7"
       is_visible="true"
       lpeversion="1"
       unit="px"
       seed="1;1"
       lpesatellites=""
       num_rows="1"
       num_cols="9"
       gapx="0"
       gapy="0"
       offset="0"
       offset_type="false"
       scale="0"
       rotate="0"
       mirrorrowsx="false"
       mirrorrowsy="false"
       mirrorcolsx="false"
       mirrorcolsy="false"
       mirrortrans="false"
       shrink_interp="false"
       split_items="false"
       link_styles="false"
       interpolate_scalex="false"
       interpolate_scaley="true"
       interpolate_rotatex="false"
       interpolate_rotatey="true"
       random_scale="false"
       random_rotate="false"
       random_gap_y="false"
       random_gap_x="false"
       transformorigin="" />
    <inkscape:path-effect
       effect="tiling"
       id="path-effect4"
       is_visible="true"
       lpeversion="1"
       unit="px"
       seed="1;1"
       lpesatellites=""
       num_rows="2"
       num_cols="1"
       gapx="0"
       gapy="0"
       offset="0"
       offset_type="false"
       scale="0"
       rotate="0"
       mirrorrowsx="false"
       mirrorrowsy="false"
       mirrorcolsx="false"
       mirrorcolsy="false"
       mirrortrans="false"
       shrink_interp="false"
       split_items="false"
       link_styles="false"
       interpolate_scalex="false"
       interpolate_scaley="true"
       interpolate_rotatex="false"
       interpolate_rotatey="true"
       random_scale="false"
       random_rotate="false"
       random_gap_y="false"
       random_gap_x="false"
       transformorigin="translate(-24,-24)" />
    <inkscape:path-effect
       effect="skeletal"
       id="path-effect3"
       is_visible="true"
       lpeversion="1"
       pattern="M 96,98 H 72 V 74 H 96 Z M 72,74 H 48 V 50 H 72 Z M 96,50 H 72 V 26 H 96 Z M 72,26 H 48 V 2 H 72 Z M 48,98 H 24 V 74 H 48 Z M 24,74 H 0 V 50 H 24 Z M 48,50 H 24 V 26 H 48 Z M 24,26 H 0 V 2 H 24 Z M 0,98 V 74 Z M 0,50 V 26 Z M 96,2 H 0 V 0 h 96 z"
       copytype="repeated_stretched"
       prop_scale="1"
       scale_y_rel="false"
       spacing="0"
       normal_offset="0"
       tang_offset="0"
       prop_units="true"
       vertical_pattern="false"
       hide_knot="false"
       fuse_tolerance="0" />
    <inkscape:path-effect
       effect="tiling"
       id="path-effect2"
       is_visible="true"
       lpeversion="1"
       unit="px"
       seed="1;1"
       lpesatellites=""
       num_rows="2"
       num_cols="2"
       gapx="0"
       gapy="0"
       offset="0"
       offset_type="false"
       scale="0"
       rotate="0"
       mirrorrowsx="false"
       mirrorrowsy="false"
       mirrorcolsx="false"
       mirrorcolsy="false"
       mirrortrans="false"
       shrink_interp="false"
       split_items="false"
       link_styles="false"
       interpolate_scalex="false"
       interpolate_scaley="true"
       interpolate_rotatex="false"
       interpolate_rotatey="true"
       random_scale="false"
       random_rotate="false"
       random_gap_y="false"
       random_gap_x="false"
       transformorigin="" />
    <inkscape:path-effect
       effect="tiling"
       id="path-effect1"
       is_visible="true"
       lpeversion="1"
       unit="px"
       seed="1;1"
       lpesatellites=""
       num_rows="1"
       num_cols="9"
       gapx="0"
       gapy="0"
       offset="0"
       offset_type="false"
       scale="0"
       rotate="0"
       mirrorrowsx="false"
       mirrorrowsy="false"
       mirrorcolsx="false"
       mirrorcolsy="false"
       mirrortrans="false"
       shrink_interp="false"
       split_items="false"
       link_styles="false"
       interpolate_scalex="false"
       interpolate_scaley="true"
       interpolate_rotatex="false"
       interpolate_rotatey="true"
       random_scale="false"
       random_rotate="false"
       random_gap_y="false"
       random_gap_x="false"
       transformorigin="" />
  </defs>
  <g
     inkscape:groupmode="layer"
     id="layer4"
     inkscape:label="Layer 3">
    <rect
       style="fill:#004455;stroke-width:6;stroke-linejoin:round"
       id="rect5"
       width="320"
       height="240"
       x="0"
       y="0" />
  </g>
  <g
     inkscape:groupmode="layer"
     id="layer3"
     inkscape:label="Layer 2">
    <path
       d="M 96,-68 H 72 V -92 H 96 Z M 72,-92 H 48 v -24 h 24 z m 24,-24 H 72 v -24 H 96 Z M 72,-140 H 48 v -24 H 72 Z M 48,-68 H 24 V -92 H 48 Z M 24,-92 H 0 v -24 h 24 z m 24,-24 H 24 v -24 H 48 Z M 24,-140 H 0 v -24 H 24 Z M 0,-68 v -24 z m 0,-48 v -24 z m 96,-48 H 0 v -2 h 96 z"
       style="stroke-width:6;stroke-linejoin:round"
       id="path2"
       sodipodi:nodetypes="ccccccccccccccccccccccccccccccccccccccccccccccccccc" />
    <path
       style="fill:#006680;stroke-width:6;stroke-linejoin:round"
       d="M 1.2626277,57.5752 10.595963,34.575194 32.834672,43.599598 23.501336,66.599604 Z M 32.834672,43.599598 42.168007,20.599592 64.406716,29.623995 55.07338,52.624001 Z M 45.740044,75.624007 55.07338,52.624001 77.312088,61.648404 67.978752,84.64841 Z M 77.312088,61.648404 86.645424,38.648398 108.88413,47.672802 99.550796,70.672808 Z M 19.929299,11.575188 29.262635,-11.424818 51.501343,-2.4004142 42.168007,20.599592 Z M 51.501343,-2.4004142 60.834679,-25.40042 83.073387,-16.376017 73.740051,6.6239891 Z M 64.406716,29.623995 73.740051,6.6239891 95.97876,15.648392 86.645424,38.648398 Z M 95.97876,15.648392 105.3121,-7.3516135 127.5508,1.6727899 118.21747,24.672796 Z m -57.382789,-50.073215 22.238708,9.024403 z m 44.477416,18.048806 22.238713,9.0244035 z M 90.217461,93.672814 127.5508,1.6727899 129.40403,2.4248235 92.070686,94.424847 Z m -126.288176,55.902406 9.333335,-23 22.2387087,9.0244 -9.3333357,23.00001 z m 31.5720437,-13.9756 9.3333357,-23 22.2387086,9.0244 -9.333336,23 z m 12.9053725,32.02441 9.3333358,-23.00001 22.238708,9.02441 -9.333336,23 z m 31.5720438,-13.9756 9.333336,-23.00001 22.238708,9.02441 -9.333336,23 z M -17.404044,103.57521 -8.070708,80.575206 14.168,89.59961 4.8346644,112.59962 Z M 14.168,89.59961 23.501336,66.599604 45.740044,75.624007 36.406708,98.624013 Z m 12.905373,32.02441 9.333335,-23.000007 22.238709,9.024407 -9.333336,23 z m 31.572044,-13.9756 9.333335,-23.00001 22.238709,9.024404 -9.333336,23.000006 z M 1.2626277,57.5752 23.501336,66.599604 Z M 45.740044,75.624007 67.978752,84.64841 Z m 7.144074,110.048833 37.333343,-92.000026 1.853225,0.752033 -37.333343,92.000023 z m -126.288176,55.90241 9.333335,-23.00001 22.238709,9.02441 -9.333336,23 z m 31.572044,-13.9756 9.333335,-23.00001 22.238709,9.0244 -9.333336,23.00001 z m 12.905372,32.0244 9.333336,-23 22.2387082,9.0244 -9.3333357,23.00001 z m 31.5720442,-13.9756 9.3333358,-23 22.238708,9.0244 -9.333336,23.00001 z m -57.3827892,-50.07321 9.333336,-23.00001 22.238708,9.0244 -9.333336,23.00001 z m 31.572044,-13.97561 9.333336,-23 22.2387082,9.0244 -9.33333574,23.00001 z m 12.905373,32.02441 9.33333546,-23 22.23870854,9.0244 -9.333336,23.00001 z m 31.572044,-13.9756 9.333335,-23.00001 22.238709,9.02441 -9.333336,23 z m -57.382789,-50.07322 22.238708,9.02441 z m 44.4774162,18.04881 22.2387078,9.0244 z m 7.1440738,110.04883 37.333343,-92.00002 1.853225,0.75203 L 17.404,278.42489 Z"
       id="path3"
       inkscape:path-effect="#path-effect3"
       inkscape:original-d="M 84,-16 -28,260"
       sodipodi:nodetypes="cc" />
  </g>
  <g
     inkscape:label="Layer 1"
     inkscape:groupmode="layer"
     id="layer1">
    <path
       style="fill:#006680;stroke-width:6;stroke-linejoin:round"
       d="M 0,0 V 64 L 20,84 40,64 V 0 Z M 40,0 V 64 L 60,84 80,64 V 0 Z m 40,0 v 64 l 20,20 20,-20 V 0 Z m 40,0 v 64 l 20,20 20,-20 V 0 Z m 40,0 v 64 l 20,20 20,-20 V 0 Z m 40,0 v 64 l 20,20 20,-20 V 0 Z m 40,0 v 64 l 20,20 20,-20 V 0 Z m 40,0 v 64 l 20,20 20,-20 V 0 Z m 40,0 v 64 l 20,20 20,-20 V 0 Z"
       id="path6"
       inkscape:path-effect="#path-effect7"
       inkscape:original-d="M 0,0 V 64 L 20,84 40,64 V 0 Z"
       transform="translate(-20,8)" />
    <path
       style="fill:#000000;stroke-width:6;stroke-linejoin:round"
       d="M 0,0 V 64 L 20,84 40,64 V 0 Z M 40,0 V 64 L 60,84 80,64 V 0 Z m 40,0 v 64 l 20,20 20,-20 V 0 Z m 40,0 v 64 l 20,20 20,-20 V 0 Z m 40,0 v 64 l 20,20 20,-20 V 0 Z m 40,0 v 64 l 20,20 20,-20 V 0 Z m 40,0 v 64 l 20,20 20,-20 V 0 Z m 40,0 v 64 l 20,20 20,-20 V 0 Z m 40,0 v 64 l 20,20 20,-20 V 0 Z"
       id="path1"
       inkscape:path-effect="#path-effect1"
       inkscape:original-d="M 0,0 V 64 L 20,84 40,64 V 0 Z"
       sodipodi:insensitive="true" />
  </g>
</svg>
